<svg width="900" height="550" xmlns="http://www.w3.org/2000/svg">
  <!-- Background -->
  <rect width="900" height="550" fill="#f5f5f5"/>
  
  <!-- Browser Window Chrome -->
  <rect x="50" y="30" width="800" height="35" fill="#e8e8e8" rx="8" ry="8"/>
  <circle cx="70" cy="47.5" r="5" fill="#ff5f56"/>
  <circle cx="90" cy="47.5" r="5" fill="#ffbd2e"/>
  <circle cx="110" cy="47.5" r="5" fill="#27c93f"/>
  <text x="450" y="52" font-family="-apple-system, BlinkMacSystemFont, sans-serif" font-size="12" text-anchor="middle" fill="#666">contentful.com/spaces/clearlink-partner-sites</text>
  
  <!-- Content Area -->
  <rect x="50" y="65" width="800" height="455" fill="#ffffff" rx="0" ry="0"/>
  
  <!-- Sidebar -->
  <rect x="50" y="65" width="180" height="455" fill="#fafafa"/>
  <line x1="230" y1="65" x2="230" y2="520" stroke="#e0e0e0" stroke-width="1"/>
  
  <!-- Sidebar Items -->
  <text x="70" y="95" font-family="-apple-system, BlinkMacSystemFont, sans-serif" font-size="11" font-weight="600" fill="#999">CONTENT MODEL</text>
  <rect x="60" y="105" width="160" height="28" fill="#ffffff" rx="4"/>
  <text x="70" y="124" font-family="-apple-system, BlinkMacSystemFont, sans-serif" font-size="13" fill="#1a1a1a">FAQ Module</text>
  <rect x="60" y="138" width="160" height="28" fill="#e6f4ff" rx="4"/>
  <text x="70" y="157" font-family="-apple-system, BlinkMacSystemFont, sans-serif" font-size="13" fill="#0066cc" font-weight="500">How to get started</text>
  <rect x="60" y="171" width="160" height="28" fill="#ffffff" rx="4"/>
  <text x="70" y="190" font-family="-apple-system, BlinkMacSystemFont, sans-serif" font-size="13" fill="#1a1a1a">Offer Card</text>
  <rect x="60" y="204" width="160" height="28" fill="#ffffff" rx="4"/>
  <text x="70" y="223" font-family="-apple-system, BlinkMacSystemFont, sans-serif" font-size="13" fill="#1a1a1a">Feature Grid</text>
  
  <!-- Main Content Header -->
  <text x="250" y="95" font-family="-apple-system, BlinkMacSystemFont, sans-serif" font-size="20" font-weight="600" fill="#1a1a1a">How to get started module</text>
  <text x="250" y="115" font-family="-apple-system, BlinkMacSystemFont, sans-serif" font-size="13" fill="#666">Reusable component • Used across 8 partner sites</text>
  
  <!-- Form Fields -->
  <text x="250" y="150" font-family="-apple-system, BlinkMacSystemFont, sans-serif" font-size="12" font-weight="600" fill="#333">Section title</text>
  <rect x="250" y="158" width="580" height="32" fill="#fafafa" stroke="#d0d0d0" stroke-width="1" rx="4"/>
  <text x="260" y="179" font-family="-apple-system, BlinkMacSystemFont, sans-serif" font-size="13" fill="#333">How to get started with fiber internet</text>
  
  <text x="250" y="210" font-family="-apple-system, BlinkMacSystemFont, sans-serif" font-size="12" font-weight="600" fill="#333">Steps (Array)</text>
  
  <!-- Step 1 -->
  <rect x="250" y="220" width="580" height="70" fill="#f8f8f8" stroke="#e0e0e0" stroke-width="1" rx="6"/>
  <text x="270" y="240" font-family="-apple-system, BlinkMacSystemFont, sans-serif" font-size="11" font-weight="600" fill="#666">STEP 1</text>
  <text x="270" y="258" font-family="Monaco, monospace" font-size="11" fill="#333">Title: Check availability at your address</text>
  <text x="270" y="275" font-family="Monaco, monospace" font-size="11" fill="#666">Icon: location-pin</text>
  
  <!-- Step 2 -->
  <rect x="250" y="300" width="580" height="70" fill="#f8f8f8" stroke="#e0e0e0" stroke-width="1" rx="6"/>
  <text x="270" y="320" font-family="-apple-system, BlinkMacSystemFont, sans-serif" font-size="11" font-weight="600" fill="#666">STEP 2</text>
  <text x="270" y="338" font-family="Monaco, monospace" font-size="11" fill="#333">Title: Choose your speed and plan</text>
  <text x="270" y="355" font-family="Monaco, monospace" font-size="11" fill="#666">Icon: speed-meter</text>
  
  <!-- Step 3 -->
  <rect x="250" y="380" width="580" height="70" fill="#f8f8f8" stroke="#e0e0e0" stroke-width="1" rx="6"/>
  <text x="270" y="400" font-family="-apple-system, BlinkMacSystemFont, sans-serif" font-size="11" font-weight="600" fill="#666">STEP 3</text>
  <text x="270" y="418" font-family="Monaco, monospace" font-size="11" fill="#333">Title: Professional installation in 3-5 days</text>
  <text x="270" y="435" font-family="Monaco, monospace" font-size="11" fill="#666">Icon: calendar-check</text>
  
  <!-- Schema Toggle -->
  <rect x="250" y="465" width="250" height="35" fill="#f0f9ff" stroke="#0066cc" stroke-width="1" rx="6"/>
  <circle cx="265" cy="482.5" r="6" fill="#0066cc"/>
  <text x="280" y="487" font-family="-apple-system, BlinkMacSystemFont, sans-serif" font-size="13" fill="#0066cc" font-weight="500">Schema.org markup enabled</text>
  
  <!-- Status Badge -->
  <rect x="720" y="90" width="110" height="24" fill="#e8f5e9" stroke="#4caf50" stroke-width="1" rx="12"/>
  <circle cx="735" cy="102" r="4" fill="#4caf50"/>
  <text x="745" y="106" font-family="-apple-system, BlinkMacSystemFont, sans-serif" font-size="11" font-weight="600" fill="#2e7d32">PUBLISHED</text>
</svg>